<?xml version="1.0" encoding="utf-8"?>
<!-- Generator: Adobe Illustrator 16.0.0, SVG Export Plug-In . SVG Version: 6.00 Build 0)  -->
<!DOCTYPE svg PUBLIC "-//W3C//DTD SVG 1.1//EN" "http://www.w3.org/Graphics/SVG/1.1/DTD/svg11.dtd">
<svg version="1.1" id="Layer_1" xmlns="http://www.w3.org/2000/svg" xmlns:xlink="http://www.w3.org/1999/xlink" x="0px" y="0px"
	 width="300px" height="118.644px" viewBox="0 0 300 118.644" enable-background="new 0 0 300 118.644" xml:space="preserve">
<g>
	<path fill="#FFFFFF" d="M0,21.55c2.459,0.04,4.924-0.011,7.375,0.142c3.1,0.194,4.97,1.818,5.662,4.869
		c0.309,1.365,0.495,2.789,0.5,4.188c0.039,11.58-0.003,23.161,0.034,34.742c0.017,5.341,0.501,10.629,2.396,15.69
		c0.164,0.438,0.366,0.863,0.736,1.244c-0.183-1.443-0.394-2.884-0.537-4.33c-0.107-1.082-0.178-2.172-0.179-3.259
		c-0.011-11.097-0.007-22.192-0.007-33.29c0-0.475,0-0.95,0-1.404c3.589-0.594,7.096,2.359,7.461,6.18
		c0.05,0.521,0.043,1.048,0.044,1.572c0.002,9.078-0.023,18.158,0.014,27.236c0.015,3.646,0.467,7.251,1.93,10.635
		c0.507,1.17,1.171,2.309,1.945,3.321c1.977,2.587,4.452,3.675,7.826,2.856c5.902-1.43,9.44-5.254,11.539-10.688
		c1.918-4.965,2.438-10.167,2.447-15.436c0.019-12.348-0.032-24.694,0.035-37.042c0.015-2.771-0.559-5.108-3.027-6.676
		c-0.094-0.06-0.155-0.176-0.224-0.272c-0.016-0.023,0.004-0.072-0.001-0.014c2.769,0,5.56-0.258,8.277,0.073
		c2.728,0.333,4.003,2.522,4.542,5.046c0.268,1.251,0.393,2.556,0.396,3.837c0.028,12.105,0.049,24.209,0.001,36.315
		c-0.02,4.736-0.638,9.403-2.221,13.904c-2.552,7.258-7.461,12.078-14.912,14.072c-7.151,1.912-14.377,1.914-21.515-0.08
		c-8.771-2.449-13.709-8.599-15.615-17.229c-0.795-3.594-1.23-7.335-1.274-11.015c-0.151-12.71-0.086-25.42-0.037-38.131
		c0.012-2.981-0.88-5.353-3.611-6.818C0,21.71,0,21.63,0,21.55z"/>
	<path fill="#FFFFFF" d="M97.821,97.094c-1.455-0.227-2.913-0.438-4.364-0.685c-14.495-2.47-24.504-12.384-27.088-26.892
		c-1.586-8.906-1.315-17.709,2.362-26.104c5.535-12.644,15.432-19.369,29.062-20.668c6.74-0.643,13.29,0.206,19.4,3.332
		c6.198,3.172,9.757,8.3,10.707,15.15c0.231,1.671,0.029,3.472-0.32,5.141c-0.689,3.29-3.316,7.122-6.18,9.38
		c-0.125-0.555-0.274-1.023-0.332-1.506c-0.885-7.368-3.197-14.146-8.329-19.7c-2.971-3.215-6.503-5.647-10.939-6.184
		c-7.301-0.884-13.097,1.861-17.333,7.837c-3.075,4.338-4.584,9.297-5.385,14.483c-1.159,7.502-1.079,14.952,1.289,22.252
		c1.895,5.834,4.883,10.967,9.85,14.748c6.81,5.186,17.068,6.146,24.51-2.472c2.175-2.519,3.972-5.367,5.866-8.118
		c0.934-1.355,1.234-1.465,2.516-0.361c1.314,1.133,2.605,2.293,3.959,3.377c0.899,0.72,0.977,1.428,0.404,2.399
		c-4.672,7.951-11.623,12.543-20.65,14.103c-0.982,0.17-1.967,0.326-2.951,0.488C101.856,97.094,99.839,97.094,97.821,97.094z"/>
	<path fill="#FFFFFF" d="M300,95.643c-0.492,0.121-0.982,0.349-1.477,0.349c-16.746,0.02-33.49,0.017-50.235,0.012
		c-0.422,0-0.845-0.067-1.267-0.104c-0.053-0.111-0.106-0.227-0.16-0.34c0.658-0.539,1.271-1.146,1.979-1.604
		c1.821-1.18,2.452-2.896,2.452-4.961c-0.004-19.407-0.008-38.816,0.006-58.225c0.001-2.132-0.703-3.844-2.529-5.049
		c-0.676-0.447-1.278-1.004-1.914-1.512c0.049-0.123,0.098-0.246,0.146-0.369c0.37-0.037,0.741-0.106,1.112-0.106
		c15.453-0.005,30.906,0.003,46.361-0.022c1.082-0.002,1.406,0.407,1.385,1.43c-0.049,2.218-0.059,4.439,0.004,6.657
		c0.029,1.052-0.287,1.322-1.338,1.147c-4.849-0.812-9.688-1.712-14.566-2.276c-5.521-0.639-11.081-0.955-16.624-1.405
		c-0.353-0.029-0.706-0.004-0.942-0.004c0,8.464,0,16.837,0,25.422c0.65,0,1.112,0,1.575,0c6.899,0,13.8,0,20.698,0.002
		c1.754,0,2.014,0.271,2.018,2.045c0,0.889-0.02,1.775,0.004,2.664c0.029,1.121-0.525,1.627-1.615,1.625
		c-2.422-0.002-4.842,0-7.264,0c-5.039,0-10.08,0-15.379,0c0,9.849,0,19.625,0,29.5c1.633-0.076,3.481-0.072,5.313-0.262
		c9.699-1.007,19.395-2.064,29.092-3.095c1.053-0.111,2.111-0.159,3.167-0.235C300,89.831,300,92.734,300,95.643z"/>
	<path fill="#FFFFFF" d="M277.725,0c2.146,1.638,4.283,3.284,6.438,4.912c1.392,1.053,1.396,1.474,0.015,2.536
		c-3.611,2.78-7.23,5.548-10.808,8.374c-1.164,0.919-2.2,1.998-3.44,3.139c-1.373-1.087-2.757-2.12-4.041-3.265
		c-0.214-0.19-0.17-1,0.055-1.3c3.552-4.748,7.15-9.458,10.736-14.179c0.045-0.058,0.053-0.144,0.077-0.216
		C277.079,0,277.4,0,277.725,0z"/>
	<path fill="#FFFFFF" d="M127.191,96.007c0.205-0.71,0.309-1.167,0.467-1.604c7.789-21.375,15.583-42.748,23.375-64.123
		c0.15-0.417,0.29-0.838,0.431-1.258c0.443-1.319,0.21-2.438-0.892-3.371c-0.535-0.453-0.977-1.017-1.674-1.759
		c0.686-0.078,1.061-0.156,1.436-0.157c4.034-0.009,8.068,0.013,12.104-0.017c1.211-0.009,1.953,0.478,2.389,1.614
		c7.736,20.192,15.49,40.379,23.234,60.568c0.39,1.015,0.748,2.041,1.09,3.072c0.929,2.812,2.728,4.896,5.427,6.459
		c0.993-0.834,2.173-1.633,3.092-2.666c0.575-0.644,0.84-1.613,1.083-2.483c0.169-0.603,0.076-1.281,0.076-1.927
		c0.003-18.924-0.038-37.847,0.047-56.77c0.012-2.77-0.738-4.866-3.111-6.339c-0.472-0.293-0.847-0.743-1.267-1.121
		c0.045-0.105,0.09-0.21,0.134-0.315c0.374-0.027,0.749-0.08,1.124-0.08c16.099-0.004,32.196,0.003,48.295-0.021
		c0.968-0.001,1.394,0.243,1.369,1.282c-0.055,2.339-0.013,4.68-0.021,7.02c-0.002,0.308-0.064,0.615-0.117,1.082
		c-11.774-2.271-23.575-3.405-35.318-3.892c0,8.448,0,16.777,0,25.313c0.682,0,1.143,0,1.604,0c7.183,0,14.363,0,21.545,0.002
		c1.916,0,2.24,0.33,2.242,2.244c0,0.646,0,1.293,0,1.938c-0.002,1.914-0.268,2.19-2.139,2.194c-2.421,0.004-4.843,0-7.264,0
		c-4.721,0-9.439,0-14.161,0c-0.481,0-0.964,0-1.658,0c0,0.531,0,0.992,0,1.453c0,7.827,0.042,15.653-0.032,23.48
		c-0.019,1.794-0.24,3.64-0.721,5.363c-0.799,2.875-2.777,4.651-5.859,4.718c-5.08,0.106-10.164,0.077-15.246,0.09
		c-1.571,0.004-3.146,0.005-4.715-0.082c-2.945-0.164-4.824-1.76-5.847-4.479c-2.42-6.445-4.875-12.879-7.262-19.336
		c-0.313-0.851-0.754-1.057-1.589-1.054c-7.545,0.026-15.09,0.03-22.634-0.005c-0.88-0.004-1.242,0.273-1.516,1.116
		c-2.398,7.392-4.871,14.762-7.268,22.153c-0.402,1.24-1.063,1.744-2.364,1.709C132.545,95.958,130.009,96.007,127.191,96.007z
		 M147.316,64.6c6.834,0,13.491,0,20.258,0c-3.58-9.541-7.116-18.967-10.76-28.679C153.584,45.676,150.463,55.1,147.316,64.6z"/>
</g>
</svg>
