<?xml version="1.0" encoding="utf-8"?>
<!-- Generator: Adobe Illustrator 16.0.0, SVG Export Plug-In . SVG Version: 6.00 Build 0)  -->
<!DOCTYPE svg PUBLIC "-//W3C//DTD SVG 1.1//EN" "http://www.w3.org/Graphics/SVG/1.1/DTD/svg11.dtd">
<svg version="1.1" id="Layer_1" xmlns="http://www.w3.org/2000/svg" xmlns:xlink="http://www.w3.org/1999/xlink" x="0px" y="0px"
	 width="100px" height="100px" viewBox="0 0 100 100" enable-background="new 0 0 100 100" xml:space="preserve">
<g>
	<path fill="#FFFFFF" d="M50.012,99.5c-9.585-0.001-19.169,0.007-28.753-0.005c-3.362-0.004-3.877-0.604-3.34-3.961
		c0.515-3.205,1.728-6.263,1.998-9.529c0.867-10.471,1.688-20.935,0.95-31.46c-0.321-4.578-0.648-9.136-1.426-13.666
		c-0.475-2.752,0.1-3.412,2.918-3.601c5.67-0.379,11.35-0.648,17.024-0.988c9.204-0.551,18.408-1.135,27.613-1.68
		c3.821-0.226,7.647-0.436,11.476-0.563c2.547-0.084,3.332,0.993,2.809,3.485c-1.186,5.644-1.416,11.396-1.811,17.121
		c-0.961,13.918,0.317,27.703,2.664,41.414c0.45,2.629-0.223,3.431-2.848,3.432C69.527,99.504,59.77,99.501,50.012,99.5z
		 M49.277,72.598c7.375,0.336,15.395-6.166,15.73-15.879c0.037-1.082-0.434-1.891-1.503-2.009c-1.133-0.125-1.628,0.719-1.791,1.729
		c-0.165,1.031-0.222,2.082-0.435,3.103c-1.125,5.396-5.829,9.452-11.422,9.89c-4.955,0.387-9.83-2.836-11.854-7.804
		c-0.688-1.69-0.914-3.476-1.166-5.256c-0.136-0.953-0.528-1.774-1.603-1.694c-1.02,0.075-1.418,0.896-1.486,1.855
		c-0.02,0.289-0.01,0.58-0.002,0.871C33.98,65.887,40.818,72.575,49.277,72.598z M35.674,50.867
		c1.266,0.059,2.438-1.057,2.501-2.379c0.068-1.387-1.057-2.609-2.424-2.639c-1.229-0.025-2.479,1.131-2.565,2.375
		C33.1,49.472,34.354,50.807,35.674,50.867z M63.227,45.844c-1.265,0.025-2.332,1.22-2.301,2.576
		c0.03,1.317,1.178,2.461,2.453,2.447c1.29-0.016,2.4-1.167,2.407-2.495C65.793,46.993,64.604,45.818,63.227,45.844z"/>
	<path fill="#FFFFFF" d="M78.227,21.168c0.407,0.731,1.03,1.086,1.828,1.376c1.25,0.453,2.059,1.408,1.678,2.848
		c-0.519,1.959-0.779,3.979-1.584,5.873c-0.447,1.053-1.029,1.563-2.187,1.586c-5.512,0.107-10.989,0.795-16.517,0.827
		c-4.045,0.022-8.047,0.937-12.127,1.024c-7.125,0.152-14.215,1.277-21.361,0.941c-2.051-0.096-3.975,0.717-6.021,0.549
		c-0.718-0.06-1.264-0.116-1.44-0.901c-0.522-2.312-1.077-4.615-1.55-6.937c-0.399-1.97,0.322-2.934,2.311-3.196
		c1.403-0.187,2.564-1.205,4.239-1.058c-2.122-0.912-2.869-2.322-2.32-4.363c0.527-1.961,2.294-3.053,4.28-2.615
		c1.902,0.419,3.563,1.188,4.855,2.786c1.42,1.755,3.287,1.307,4.063-0.847c0.433-1.203,0.86-2.406,1.627-3.453
		c0.606-0.824,1.358-1.403,2.401-1.588c2.177-0.381,3.146-1.64,2.979-3.974c-0.099-1.387-0.343-2.764-0.52-4.146
		c-0.312-2.43-0.104-2.621,2.133-1.938c0.38,0.116,0.752,0.286,1.134,0.088c0.136-0.939-1.272-1.222-0.926-1.947
		c0.384-0.804,1.407-0.053,2.069-0.349c1.6-0.715,3.174-1.483,4.94-0.514c2.759-1.843,2.638,0.089,2.329,1.966
		c0.813,0.027,1.178-0.396,1.604-0.664c1.652-1.037,1.795-0.986,1.938,1.018c0.082,1.157,0.259,2.362,0.038,3.476
		c-0.435,2.188,0.979,3.698,1.687,5.472c0.164,0.414,0.469,0.45,0.846,0.246c0.955-0.518,1.899-1.331,3.057-0.727
		c1.521,0.798,2.639,2.068,3.532,3.517c0.301,0.488,0.479,1.052,0.706,1.586c0.791,1.866,1.898,2.058,3.385,0.585
		c2.121-2.104,4.07-2.67,6.064-1.764C80.072,17.173,80.406,19.277,78.227,21.168z"/>
	<path fill="none" d="M49.277,72.598c-8.459-0.021-15.297-6.711-15.531-15.193c-0.008-0.289-0.018-0.58,0.002-0.87
		c0.068-0.959,0.467-1.78,1.486-1.855c1.072-0.079,1.467,0.741,1.603,1.694c0.252,1.781,0.478,3.564,1.166,5.256
		c2.024,4.969,6.899,8.189,11.854,7.803c5.593-0.437,10.297-4.492,11.422-9.889c0.213-1.02,0.27-2.07,0.435-3.102
		c0.163-1.013,0.658-1.855,1.791-1.73c1.069,0.118,1.54,0.927,1.503,2.009C64.672,66.432,56.65,72.934,49.277,72.598z"/>
	<path fill="none" d="M35.674,50.867c-1.32-0.063-2.574-1.395-2.488-2.643c0.086-1.244,1.336-2.402,2.565-2.375
		c1.368,0.029,2.492,1.252,2.424,2.639C38.111,49.81,36.939,50.926,35.674,50.867z"/>
	<path fill="none" d="M63.227,45.844c1.377-0.026,2.566,1.147,2.561,2.528c-0.006,1.327-1.117,2.479-2.407,2.495
		c-1.276,0.016-2.423-1.129-2.453-2.447C60.895,47.064,61.962,45.871,63.227,45.844z"/>
</g>
</svg>
