<?xml version="1.0" encoding="utf-8"?>
<!-- Generator: Adobe Illustrator 16.0.0, SVG Export Plug-In . SVG Version: 6.00 Build 0)  -->
<!DOCTYPE svg PUBLIC "-//W3C//DTD SVG 1.1//EN" "http://www.w3.org/Graphics/SVG/1.1/DTD/svg11.dtd">
<svg version="1.1" id="Layer_1" xmlns="http://www.w3.org/2000/svg" xmlns:xlink="http://www.w3.org/1999/xlink" x="0px" y="0px"
	 width="100px" height="100px" viewBox="0 0 100 100" enable-background="new 0 0 100 100" xml:space="preserve">
<g>
	<path fill-rule="evenodd" clip-rule="evenodd" fill="#fff" d="M7.417,5.628l15.754-5.214c2.164-0.716,4.291-0.499,6.276,0.621
		c1.976,1.12,3.246,2.843,3.745,5.063l10.992,49.347c0.855,3.868-1.29,7.726-5.035,9.025l-6.428,2.221
		c-3.83,1.331-8.018-0.499-9.646-4.216L2.75,16.12c-0.912-2.08-0.902-4.207,0.02-6.276C3.691,7.772,5.272,6.343,7.417,5.628"/>
	<path fill-rule="evenodd" clip-rule="evenodd" fill="#fff" d="M42.339,73.829c7.228-0.047,13.119,5.768,13.175,12.985
		c0.057,7.228-5.759,13.129-12.987,13.185C35.3,100.047,29.4,94.23,29.353,87.003C29.288,79.785,35.113,73.886,42.339,73.829"/>
	<path fill-rule="evenodd" clip-rule="evenodd" fill="#fff" d="M69.479,65.373c-0.217,0.113-2.107,0.923-4.111,1.714
		c-3.52,1.396-5.119,5.499-3.727,9.02l2.813,7.143c0.734,1.854,2.033,3.19,3.867,3.971c1.836,0.771,3.539,0.527,5.412-0.17
		c15.5-5.721,25.475-19.333,24.063-36.224c-1.459-17.362-14.342-30.123-29.99-32.663c-5.619-0.914-10.221-0.537-15.518,0.441
		c-1.168,0.207-3.031,0.744-3.681,1.741c-0.648,0.997-0.818,2.099-0.518,3.246l3.689,13.786c0.518,1.91,2.447,3.162,4.377,2.683
		c2.973-0.734,5.607-0.763,7.537-0.621c7.266,0.546,11.971,6.578,12.506,12.703C76.745,58.259,74.647,62.175,69.479,65.373"/>
</g>
</svg>
