<?xml version="1.0" encoding="utf-8"?>
<!-- Generator: Adobe Illustrator 16.0.0, SVG Export Plug-In . SVG Version: 6.00 Build 0)  -->
<!DOCTYPE svg PUBLIC "-//W3C//DTD SVG 1.1//EN" "http://www.w3.org/Graphics/SVG/1.1/DTD/svg11.dtd">
<svg version="1.1" id="Layer_1" xmlns="http://www.w3.org/2000/svg" xmlns:xlink="http://www.w3.org/1999/xlink" x="0px" y="0px"
	 width="100px" height="100px" viewBox="0 0 100 100" enable-background="new 0 0 100 100" xml:space="preserve">
<g>
	<path fill="#FFFFFF" d="M93.574,68.484c-1.211-0.104-2.461,0.281-3.696,0.42c-0.403,0.048-0.92,0.193-1.207,0.014
		c-1.983-1.25-3.282-0.956-4.431,1.146c-1.995,3.652-4.676,6.617-8.41,8.56c-2.043,1.062-4.072,2.151-5.896,3.117
		c-0.676-0.427-1.072-0.864-1.521-0.929c-2.729-0.381-5.462-0.869-8.206-0.965c-7.134-0.25-14.048,1.258-20.924,2.951
		c-0.422,0.104-0.959,0.281-1.293,0.117c-1.296-0.633-2.531-1.389-3.836-2.128c0.223-0.261,0.303-0.431,0.435-0.497
		c2.815-1.428,5.629-2.855,8.467-4.238c0.276-0.135,0.704-0.005,1.051,0.057c3.511,0.621,7,1.586,10.535,1.82
		c9.961,0.661,19.07-1.755,26.889-8.272c4.371-3.646,7.66-8.069,9.677-13.369c1.927-5.067,2.364-10.32,1.565-15.699
		c-0.902-6.065-3.306-11.427-7.758-15.63c-5.859-5.531-12.972-8.339-21.031-8.676c-1.604-0.067-3.213-0.01-4.955-0.01
		c0-2.225,0.033-4.254-0.006-6.282c-0.082-4.207-1.367-5.305-5.592-4.839c-0.123,0.013-0.242,0.039-0.363,0.055
		c-5.967,0.765-11.45,2.84-16.633,5.881c-5.636,3.307-10.347,7.555-13.981,12.984c-0.628,0.938-1.139,1.956-1.741,3
		c-0.538-0.191-1.033-0.354-1.518-0.542c-0.417-0.16-0.823-0.347-1.233-0.522c-1.392-0.598-2.82-0.992-4.154,0.039
		c-1.325,1.023-1.446,2.549-1.152,4.01c0.634,3.143,1.348,6.278,3.391,8.904c0.233,0.301,0.351,0.818,0.292,1.2
		c-0.609,3.992-0.334,7.933,0.541,11.858c1.377,6.17,4.162,11.76,7.125,17.271c1.124,2.092,2.34,4.134,3.513,6.195
		c-3.588-2.529-6.47-5.67-8.811-9.303c-1.128-1.75-2.383-1.982-4.018-0.638c-0.422,0.349-0.766,0.789-1.229,1.272
		c-0.578-0.616-1.054-1.172-1.579-1.678c-2.166-2.08-6.132-2.139-8.242-0.115c-2.312,2.216-3.313,4.906-3.113,8.127
		c0.223,3.594,2.291,6.231,4.493,8.711c4.065,4.576,9.048,8.004,14.495,10.754c1.664,0.839,3.39,1.559,5.087,2.333
		c17.33,0,34.66,0,51.989,0c0.297-0.132,0.583-0.285,0.889-0.388c6.297-2.109,12.116-5.062,17.146-9.483
		c2.341-2.06,3.899-4.519,4.651-7.539C100.378,73.105,97.271,68.805,93.574,68.484z M88.495,50.284
		c-0.446,1.727-0.769,3.375-1.3,4.955c-1.598,4.774-4.481,8.504-9.344,10.235c-7.098,2.526-13.021-0.608-14.59-8.238
		c-0.381-1.853-0.453-3.766-0.688-5.828C71.4,53.114,79.889,53.907,88.495,50.284z M37.555,32.886
		c2.989-2.726,7.435-1.594,8.849,2.2c1.424,3.82,0.344,7.882-2.777,10.45c-2.034,1.673-5.164,1.403-6.904-0.597
		c-1.354-1.559-2.139-3.336-2.088-5.446C34.787,36.931,35.629,34.642,37.555,32.886z"/>
	<path fill="#FFFFFF" d="M38.752,37.983c0.743,0.137,1.382-0.466,1.259-1.248c-0.078-0.495-0.651-0.913-1.002-1.364
		c-0.185,0.004-0.369,0.009-0.554,0.012c-0.317,0.474-0.928,0.987-0.871,1.41C37.647,37.254,38.28,37.896,38.752,37.983z"/>
</g>
</svg>
