<?xml version="1.0" encoding="utf-8"?>
<!-- Generator: Adobe Illustrator 16.0.0, SVG Export Plug-In . SVG Version: 6.00 Build 0)  -->
<!DOCTYPE svg PUBLIC "-//W3C//DTD SVG 1.1//EN" "http://www.w3.org/Graphics/SVG/1.1/DTD/svg11.dtd">
<svg version="1.1" id="Layer_1" xmlns="http://www.w3.org/2000/svg" xmlns:xlink="http://www.w3.org/1999/xlink" x="0px" y="0px"
	 width="100px" height="100px" viewBox="0 0 100 100" enable-background="new 0 0 100 100" xml:space="preserve">
<g>
	<path fill="#fff" d="M98.19,26.561L52.07,51.875v36.371c0.715-0.414,1.591-0.941,2.663-1.59
		c5.308-3.256,14.624-9.053,23.14-14.352c5.731-3.566,9.985-6.207,13.091-8.135c3.773-2.348,5.995-3.719,6.37-3.92
		c0.066-0.029,0.085-0.076,0.15-0.117c0.377-0.221,0.631-0.527,0.688-0.895c0.01-0.027,0.028-0.057,0.028-0.09L98.19,26.561z"/>
	<path fill="#fff" d="M1.8,59.291c0.047,0.211,0.282,0.568,0.678,0.742c0.781,0.395,6.446,3.91,19.226,11.877
		c10.088,6.268,21.39,13.297,25.652,15.865V51.832L1.8,26.815V59.291z"/>
	<path fill="#fff" d="M78.702,11.947l-0.556,0.338l-0.771-0.057c-0.979,0.594-3.152,1.953-5.693,3.543
		c-5.401,3.365-12.102,7.548-13.776,8.433c-2.428,1.331-5.251,1.966-7.99,1.948c-2.201-0.01-4.827-0.484-7.038-1.497
		c-2.691-1.021-17.937-10.916-20.958-12.901l-0.028,0.027l-0.611,0.128c-1.797,0.993-13.052,7.853-17.682,10.704L49.756,47.97
		L96.14,22.5C92.169,20.059,80.603,13.006,78.702,11.947"/>
</g>
</svg>
