<?xml version="1.0" encoding="utf-8"?>
<!-- Generator: Adobe Illustrator 16.0.0, SVG Export Plug-In . SVG Version: 6.00 Build 0)  -->
<!DOCTYPE svg PUBLIC "-//W3C//DTD SVG 1.1//EN" "http://www.w3.org/Graphics/SVG/1.1/DTD/svg11.dtd">
<svg version="1.1" id="Layer_1" xmlns="http://www.w3.org/2000/svg" xmlns:xlink="http://www.w3.org/1999/xlink" x="0px" y="0px"
	 width="100px" height="100px" viewBox="0 0 100 100" enable-background="new 0 0 100 100" xml:space="preserve">
<g>
	<path fill="#fff" d="M89.128,28.433H69.413c-0.603-6.678-2.466-12.709-5.139-17.325C60.709,5,55.702,1.203,50.007,1.203
		c-5.684,0-10.709,3.765-14.256,9.904c-2.673,4.635-4.536,10.647-5.139,17.325H10.869c-2.333,0-4.403,1.947-4.243,4.281l3.98,55.206
		c0.423,5.967,4.149,10.877,11.17,10.877h56.473c6.314,0,10.662-3.971,11.161-10.877l3.962-55.239
		C93.55,30.353,91.452,28.433,89.128,28.433 M39.995,13.592c2.672-4.606,6.211-7.468,10.012-7.468c3.774,0,7.342,2.861,9.968,7.449
		c2.277,3.934,3.876,9.066,4.45,14.859H35.544C36.146,22.673,37.718,17.507,39.995,13.592 M64.792,76.166
		c-0.311,1.129-0.81,2.25-1.486,3.359c-0.16,0.234-0.264,0.414-0.348,0.545c-1.215,1.799-2.758,3.145-4.574,4.039
		c-1.816,0.893-3.887,1.346-6.174,1.363c-4.272,0-9.251-1.561-14.492-4.762c-0.659-0.377-1.337-0.791-2.033-1.297
		c-0.932-0.623-1.166-1.865-0.536-2.777s1.863-1.158,2.776-0.518c0.574,0.387,1.186,0.781,1.834,1.176
		c4.611,2.805,8.865,4.188,12.404,4.188c3.2,0,5.788-1.205,7.444-3.641c0.104-0.18,0.207-0.293,0.235-0.367
		c0.471-0.754,0.81-1.563,1.044-2.354c0.489-1.617,0.396-3.313-0.254-4.818c-0.715-1.6-2.08-3.152-4.197-4.432
		c-0.705-0.434-1.496-0.838-2.381-1.205c-0.884-0.375-1.854-0.715-2.917-1.002c-5.402-1.523-9.383-3.66-11.538-6.555
		c-2.353-3.17-2.541-6.995-0.019-11.64c1.675-3.063,5.109-4.982,9.457-5.316c3.756-0.292,8.264,0.606,12.847,2.936
		c0.997,0.504,1.393,1.708,0.865,2.701c-0.518,0.992-1.703,1.388-2.7,0.865c-3.906-1.994-7.623-2.758-10.711-2.518
		c-2.973,0.236-5.223,1.389-6.22,3.219c-1.685,3.077-1.656,5.485-0.292,7.315c1.572,2.133,4.847,3.779,9.411,5.059
		c2.466,0.715,4.564,1.6,6.296,2.65c1.421,0.869,2.616,1.838,3.586,2.902c0.96,1.049,1.693,2.188,2.201,3.363
		C65.376,71.074,65.508,73.654,64.792,76.166"/>
</g>
</svg>
