<?xml version="1.0" encoding="utf-8"?>
<!-- Generator: Adobe Illustrator 16.0.0, SVG Export Plug-In . SVG Version: 6.00 Build 0)  -->
<!DOCTYPE svg PUBLIC "-//W3C//DTD SVG 1.1//EN" "http://www.w3.org/Graphics/SVG/1.1/DTD/svg11.dtd">
<svg version="1.1" id="Layer_1" xmlns="http://www.w3.org/2000/svg" xmlns:xlink="http://www.w3.org/1999/xlink" x="0px" y="0px"
	 width="100px" height="100px" viewBox="0 0 100 100" enable-background="new 0 0 100 100" xml:space="preserve">
<g>
	<path fill-rule="evenodd" clip-rule="evenodd" fill="#fff" d="M91.367,20.47c-0.404,0-0.678-0.132-1.025-0.132
		c-6.258,0.066-12.479,0.066-18.754,0.132c-0.895,0-1.365-0.132-1.639-1.223C68.105,11.398,63.26,6.759,56.578,4.303
		c-1.092-0.405-2.184-0.678-3.275-1.092h-6.616c-0.894,0.339-1.845,0.687-2.729,1.026c-6.965,2.315-11.942,7.095-13.994,15.217
		c-0.131,0.404-0.885,0.884-1.289,0.884c-6.691,0.066-13.447,0.066-20.129,0.066v76.343c19.037,0,38.141,0.132,57.168-0.075
		c9.965-0.066,20.609-7.293,24.289-18.755c0.818-2.531,1.307-5.327,1.363-7.99c0.143-16.021,0.066-31.991,0.066-47.951
		C91.434,21.496,91.367,21.016,91.367,20.47 M43.882,41.625c6.418,6.889,5.533,17.871-1.834,23.667
		c-3.002,2.325-6.353,3.412-10.032,3.412c-4.433-0.065-8.394-1.633-11.669-5.114c-5.73-6.069-5.797-15.49-0.273-21.767
		C26.417,34.727,37.474,34.595,43.882,41.625 M56.578,68.901c0.611,0.688,0.742,1.167,0,1.92c-1.977,2.042-3.887,4.159-5.938,6.201
		c-0.273,0.273-1.026,0.273-1.299,0c-2.043-2.042-4.019-4.159-6.07-6.276c-0.611-0.612-0.48-1.091,0-1.703
		c1.854-2.112,4.094-3.063,6.615-3.129C52.484,66.046,54.732,66.864,56.578,68.901 M56.238,63.655
		c-5.805-6.135-5.938-15.688-0.207-21.964c6.07-6.681,16.572-7.03,22.99-0.753c7.096,6.964,6.484,18.493-1.299,24.43
		c-3.002,2.249-6.277,3.336-10.369,3.336C63.4,68.563,59.514,67.071,56.238,63.655 M35.696,19.313
		c1.506-4.433,4.3-7.435,8.121-9.213c6.888-3.274,15.216-0.611,19.169,6.145c0.752,1.299,1.232,2.861,1.986,4.64
		c-2.053,0.338-3.625,0.404-5.186,0.884c-2.938,0.818-5.807,1.91-8.734,2.794c-0.413,0.141-0.893,0.141-1.297-0.066
		c-4.226-1.976-8.668-3.133-13.241-3.481C35.291,20.885,35.357,20.272,35.696,19.313"/>
	<path fill-rule="evenodd" clip-rule="evenodd" fill="#fff" d="M39.102,62.074c4.132-2.276,6.192-6.982,5.091-11.538
		c-1.308-5.383-6.465-8.206-10.229-7.801c1.232,3.351,1.072,5.26-0.801,6.785c-0.855,0.696-1.966,1.176-3.011,1.336
		c-2.127,0.32-3.755-0.904-4.968-2.861c-1.732,2.682-1.761,5.948-0.764,8.583C26.689,62.582,33.541,65.142,39.102,62.074"/>
	<path fill-rule="evenodd" clip-rule="evenodd" fill="#fff" d="M76.264,52.702c-0.113-4.264-3.029-8.245-7.049-9.515
		c-1.109-0.348-2.268-0.471-3.564-0.724c1.307,4.037,0.939,5.938-1.252,7.519c-2.381,1.723-4.791,1.129-7.643-2.014
		c-1.326,2.786-1.703,5.496-0.715,8.338c1.996,5.703,8.131,8.536,13.664,6.343C73.705,61.067,76.367,57.012,76.264,52.702"/>
</g>
</svg>
